<?xml version="1.0" encoding="UTF-8"?>
<svg width="183.17mm" height="183.17mm" version="1.1" viewBox="0 0 183.17 183.17" xmlns="http://www.w3.org/2000/svg">
 <g transform="translate(-10.011 -101.97)" fill-rule="evenodd" stroke-linecap="round" stroke-linejoin="round" stroke-opacity=".49888" stroke-width="10.583">
  <rect x="10.011" y="101.97" width="183.17" height="183.17" fill="#d7d7d7" stop-color="#000000"/>
  <path d="m121.63 193.55a20.03 20.03 0 0 1-20.03 20.03 20.03 20.03 0 0 1-20.03-20.03 20.03 20.03 0 0 1 20.03-20.03 20.03 20.03 0 0 1 20.03 20.03zm60.06 0a80.09 80.09 0 0 1-80.09 80.09 80.09 80.09 0 0 1-80.09-80.09 80.09 80.09 0 0 1 80.09-80.09 80.09 80.09 0 0 1 80.09 80.09z" fill="#686868" stop-color="#000000"/>
  <g transform="translate(.018441 .41378)" fill="#d7d7d7" stop-color="#000000" style="font-variation-settings:normal">
   <path d="m111.06 156.18c0 0.84453-4.0121 1.3353-10.029 3.3418-6.0539 2.019-14.041 5.7252-20.644 12.421h-2e-6c-6.6963 6.6033-10.402 14.59-12.421 20.644-2.0065 6.0165-2.4972 10.029-3.3418 10.029-0.84452 0-1.9319-4.1648-0.86292-11.028 1.0772-6.9162 4.5793-16.309 12.301-23.969h6e-6c7.6604-7.7218 17.053-11.224 23.969-12.301 6.8633-1.0689 11.028 0.0184 11.028 0.86292zm0-14.797c0 0.84452-5.4098 1.2732-13.448 3.7536-8.1335 2.5097-18.622 7.2624-27.687 16.343 0 0-2e-6 1e-5 -3e-6 1e-5 -9.081 9.0651-13.834 19.553-16.343 27.687-2.4804 8.0384-2.9091 13.448-3.7536 13.448-0.84452 0-1.9939-5.5625-0.45109-14.448 1.5609-8.989 6.1235-20.897 16.223-31.012 5e-6 0 7e-6 -1e-5 8e-6 -1e-5 10.115-10.099 22.023-14.662 31.012-16.223 8.8853-1.5428 14.448-0.39343 14.448 0.45109zm0-14.797c0 0.84452-6.8075 1.2111-16.868 4.1654-10.211 2.9986-23.205 8.8016-34.73 20.265h-4e-6c-11.464 11.525-17.267 24.519-20.265 34.73-2.9543 10.06-3.3209 16.868-4.1654 16.868-0.84452 0-2.056-6.9602-0.03925-17.867 2.0455-11.063 7.6669-25.484 20.145-38.056 5e-6 -1e-5 7e-6 -1e-5 9e-6 -1e-5 12.571-12.478 26.993-18.1 38.056-20.145 10.907-2.0168 17.867-0.80527 17.867 0.0393z" stop-color="#000000" style="font-variation-settings:normal"/>
   <path d="m92.097 230.09c0-0.84453 4.0121-1.3353 10.029-3.3418 6.0539-2.019 14.041-5.7252 20.644-12.421 6.6963-6.6033 10.402-14.59 12.421-20.644 2.0065-6.0165 2.4972-10.029 3.3418-10.029 0.84453 0 1.9319 4.1648 0.86293 11.028-1.0772 6.9162-4.5793 16.309-12.301 23.969h-1e-5c-7.6604 7.7218-17.053 11.224-23.969 12.301-6.8633 1.0689-11.028-0.0184-11.028-0.86292zm-2e-6 14.797c0-0.84452 5.4098-1.2732 13.448-3.7536 8.1335-2.5097 18.622-7.2624 27.687-16.343 0 0 0-1e-5 1e-5 -1e-5 9.081-9.0651 13.834-19.553 16.343-27.687 2.4804-8.0384 2.9091-13.448 3.7536-13.448 0.84452 0 1.9939 5.5625 0.45109 14.448-1.5609 8.989-6.1236 20.897-16.223 31.012l-1e-5 1e-5c-10.115 10.099-22.023 14.662-31.012 16.223-8.8853 1.5428-14.448 0.39343-14.448-0.45109zm-1e-6 14.797c0-0.84452 6.8075-1.2111 16.868-4.1654 10.211-2.9986 23.205-8.8016 34.73-20.265 11.464-11.525 17.267-24.519 20.265-34.73 2.9543-10.06 3.3209-16.868 4.1654-16.868 0.84452 0 2.056 6.9602 0.0392 17.867-2.0455 11.063-7.6669 25.484-20.145 38.056h-1e-5c-12.571 12.478-26.993 18.1-38.056 20.145-10.907 2.0168-17.867 0.80527-17.867-0.0393z" stop-color="#000000" style="font-variation-settings:normal"/>
  </g>
 </g>
</svg>
